<svg width="95" height="97" viewBox="0 0 95 97" fill="none" xmlns="http://www.w3.org/2000/svg">
<g filter="url(#filter0_d_1_946)">
<rect x="1.49438" y="1.84619" width="90.0111" height="90.0111" rx="45.0056" fill="#FFDC58" stroke="black" stroke-width="2"/>
<path fill-rule="evenodd" clip-rule="evenodd" d="M45.2922 74.4116C45.2917 74.4026 45.2843 74.3955 45.2753 74.3952C44.1047 74.366 42.9067 74.2517 41.7277 73.9213C41.2969 73.8007 40.8567 73.6819 40.4427 73.4817C39.7134 73.1348 39.0358 72.6387 38.5023 72.022C38.2332 71.7093 38.0025 71.3959 37.7961 71.0248C37.5797 70.6536 37.4535 70.2228 37.4032 69.7907C37.3522 69.4059 37.3932 69.0099 37.4877 68.6362C37.5903 68.2613 37.7731 67.92 37.9863 67.6079C38.5589 66.8221 39.5294 66.3515 40.4352 66.4379C40.7193 66.4559 40.6789 66.6027 40.4968 66.8252C40.3022 67.0223 40.0398 67.4239 39.7482 67.644C39.4678 67.8342 39.3056 68.1208 39.1247 68.3378C38.9574 68.5747 38.8499 68.8345 38.802 69.0988C38.7305 69.3586 38.7175 69.6378 38.7728 69.9281C38.83 70.2172 38.9736 70.505 39.1688 70.8451C39.4063 71.2225 39.7333 71.5507 40.1107 71.8187C40.4949 72.0798 40.9239 72.2825 41.3659 72.4597C42.3432 72.847 43.4423 73.0161 44.5527 73.0863C45.2384 73.1255 45.9347 73.1354 46.6198 73.0963C47.6599 73.0353 48.7087 72.906 49.6941 72.6008C50.4663 72.3851 51.1812 72.0556 51.8632 71.6801C52.0149 71.5986 52.156 71.5078 52.304 71.4202C52.8536 71.0944 53.06 71.0354 53.3099 71.1249C53.3659 71.1448 53.4299 71.156 53.4747 71.1815C53.6158 71.2511 53.5113 71.5675 53.1315 71.9281C52.5651 72.4541 51.9036 72.9203 51.1837 73.2946C50.8231 73.4786 50.4526 73.6577 50.0671 73.7944C49.678 73.9169 49.2813 74.0201 48.8816 74.1009C47.7014 74.3497 46.4942 74.4297 45.3095 74.428C45.3003 74.428 45.2927 74.4208 45.2922 74.4116Z" fill="#231F20"/>
<path fill-rule="evenodd" clip-rule="evenodd" d="M48.5003 74.8535C48.4988 74.849 48.494 74.8464 48.4893 74.8476C47.8547 75.0156 47.2091 75.1356 46.5616 75.2346C46.3222 75.267 46.0879 75.2981 45.8479 75.3304C45.0024 75.3913 44.1519 75.3727 43.3138 75.2552C42.9408 75.206 42.5691 75.1401 42.2023 75.0624C41.7372 74.9449 41.2486 74.8256 40.8519 74.5197C40.7257 74.4302 40.8258 74.3152 41.0049 74.2443C41.1883 74.1703 41.4245 74.1523 41.6608 74.2275C42.4864 74.5371 43.3916 74.6764 44.3198 74.7578C44.878 74.8001 45.4618 74.7385 46.0294 74.6565C46.6573 74.585 47.2803 74.4557 47.8976 74.3015C48.2781 74.2107 48.6517 74.0857 49.026 73.9701L49.869 73.6711C50.1444 73.5592 50.418 73.4404 50.6878 73.318C51.1006 73.114 51.4842 72.8728 51.8839 72.6583L52.1419 72.5073C52.4714 72.3288 52.602 72.3152 52.7301 72.3692C52.7593 72.3823 52.7935 72.391 52.8159 72.4072C52.8898 72.4588 52.7972 72.6018 52.5827 72.7895C51.9505 73.3528 51.1876 73.8166 50.3738 74.179C49.779 74.4638 49.1502 74.6832 48.5114 74.8593C48.5068 74.8606 48.5019 74.8581 48.5003 74.8535Z" fill="#231F20"/>
<path fill-rule="evenodd" clip-rule="evenodd" d="M49.7318 78.8486C49.7367 78.8524 49.7435 78.8523 49.7481 78.8483C49.9467 78.6765 50.1171 78.4346 50.2735 78.1813C50.3345 78.0899 50.3568 77.9736 50.414 77.8766C50.6093 77.5241 50.7815 77.143 50.9524 76.7489C51.0345 76.5773 51.0942 76.3939 51.1613 76.2111C51.2521 75.9792 51.3105 75.7156 51.5716 75.526C51.6462 75.4676 51.732 75.5845 51.8104 75.7262C51.885 75.876 51.9757 76.0004 51.9521 76.121C51.839 76.5102 51.7899 77.015 51.5095 77.452C51.3578 77.7181 51.2956 78.0346 51.1601 78.3255C51.0165 78.6463 50.8237 78.9553 50.608 79.2487C50.4526 79.4178 50.3164 79.5975 50.1274 79.738C49.9922 79.848 49.8469 79.9451 49.6935 80.0279L49.6904 80.0296C49.5412 80.1253 49.3733 80.1738 49.2104 80.2354C49.0855 80.2932 48.9605 80.3324 48.8306 80.3684C48.7031 80.402 48.5688 80.4629 48.437 80.4735C48.3792 80.4809 48.322 80.4822 48.263 80.4772C48.0448 80.4499 47.9807 80.384 47.9646 80.1645C47.9602 80.1179 47.9534 80.0725 47.9534 80.0302C47.954 79.8972 48.0528 79.7299 48.1797 79.6696C48.5682 79.4769 48.8573 79.4135 49.1402 79.2755C49.3263 79.153 49.5395 79.0517 49.714 78.8504C49.7185 78.8451 49.7264 78.8443 49.7318 78.8486Z" fill="#231F20"/>
<path fill-rule="evenodd" clip-rule="evenodd" d="M39.9561 67.8926C39.9509 67.8852 39.9413 67.8824 39.9329 67.8858C39.78 67.9489 39.6011 68.0192 39.4462 68.1392C39.389 68.1845 39.3548 68.2492 39.2976 68.2958C39.0887 68.4593 38.8829 68.6508 38.7312 68.8771C38.6753 68.9766 38.6404 69.0941 38.6473 69.1967C38.6435 69.3428 38.6958 69.4211 38.5876 69.5336C38.549 69.5715 38.3091 69.6841 38.0411 69.7127C37.7825 69.7562 37.4443 69.6325 37.4176 69.4609C37.3473 69.1538 37.4076 68.8852 37.5015 68.6614C37.5923 68.432 37.7328 68.2436 37.9019 68.0844C38.1083 67.9023 38.1997 67.6517 38.3799 67.4584C38.5801 67.2507 38.8015 67.0649 39.0539 66.9125C39.2018 66.8137 39.3771 66.7466 39.5425 66.6726C39.8023 66.5641 40.0867 66.5167 40.3674 66.4955C40.3708 66.4952 40.3741 66.495 40.3775 66.4948C40.4912 66.4929 40.6075 66.4655 40.7262 66.4606C40.8425 66.4662 40.9656 66.4724 41.0874 66.4923C41.1434 66.496 41.1844 66.5265 41.2292 66.5544C41.3846 66.6775 41.3883 66.7851 41.2771 67.007C41.2516 67.058 41.2279 67.1084 41.1993 67.1556C41.1036 67.3111 40.96 67.4217 40.8487 67.4814C40.503 67.6766 40.485 67.7338 40.3389 67.768C40.2478 67.7884 40.1168 67.8284 39.981 67.8987C39.9724 67.9032 39.9617 67.9006 39.9561 67.8926Z" fill="#231F20"/>
<path fill-rule="evenodd" clip-rule="evenodd" d="M29.2785 57.4383C29.2818 57.4346 29.2817 57.429 29.2785 57.4253C27.7912 55.7 26.451 53.8315 25.3793 51.8073C25.1722 51.4436 24.9926 51.0656 24.816 50.6858C24.6289 50.3109 24.4604 49.9286 24.3168 49.5344C23.2201 46.7927 22.7719 43.7992 22.9907 40.8729C23.0261 40.2226 23.1343 39.5767 23.2126 38.9307C23.3519 38.2954 23.4296 37.6463 23.613 37.0271C23.9792 35.4175 24.6046 33.8173 25.5738 32.4657C25.8785 32.0461 25.9058 32.1542 25.7579 32.5702C25.6037 32.9861 25.3451 33.7389 25.0019 34.5932C24.8502 34.973 24.7159 35.3603 24.5959 35.7508C24.4747 36.1393 24.3926 36.5484 24.277 36.9426C24.1638 37.3392 24.0619 37.7377 23.9941 38.1443C23.9232 38.5496 23.8163 38.9494 23.7734 39.3591C23.5135 40.9867 23.4943 42.6479 23.6528 44.2985C23.8412 46.2786 24.4579 48.286 25.3183 50.1312C26.254 52.1685 27.4526 54.0927 28.862 55.8577C29.7181 56.9525 30.6438 57.9963 31.6174 58.9923C33.0852 60.5092 34.6599 61.9391 36.2652 63.2938C37.5141 64.3476 38.7849 65.323 40.0413 66.3476C40.3168 66.5751 40.594 66.7877 40.8626 67.0296C41.8679 67.9124 42.1396 68.2556 42.239 68.562C42.2627 68.6311 42.3025 68.7131 42.3081 68.7604C42.3242 68.922 41.8754 68.6112 41.125 68.0007C38.8837 66.2058 36.4573 64.3469 34.1508 62.3084C32.442 60.7946 30.7847 59.1933 29.2786 57.4514C29.2753 57.4476 29.2753 57.4421 29.2785 57.4383Z" fill="#231F20"/>
<path fill-rule="evenodd" clip-rule="evenodd" d="M26.3024 31.2857C26.3126 31.2902 26.3245 31.287 26.3312 31.2781C27.3073 29.977 28.4559 28.8318 29.7087 27.8268C30.9956 26.8581 32.3733 26.0238 33.8287 25.3555C36.7494 24.0574 39.9375 23.3499 43.1479 23.4506C44.3192 23.4867 45.488 23.6216 46.6182 23.846C47.1877 23.9586 47.7553 24.0941 48.3179 24.2601C48.8806 24.423 49.4308 24.6611 49.9841 24.8644C51.9014 25.7024 53.6073 26.9931 54.9676 28.5516C56.3341 30.1096 57.3642 31.9237 58.0705 33.833C59.5054 37.6552 59.7808 41.8044 59.2461 45.7683C59.0322 47.5345 58.6567 49.2772 58.193 50.9862C57.7447 52.7021 57.156 54.3695 56.5305 56.0064C55.7242 58.1102 54.7568 60.1531 53.6782 62.1307C52.6083 64.1133 51.3922 66.0126 50.0724 67.8249C49.2449 68.9532 49.2038 68.6909 49.6714 67.5892C49.9107 67.0428 50.2489 66.2694 50.681 65.3573C51.0975 64.436 51.6135 63.3797 52.2029 62.2538C53.2536 60.2588 54.1532 58.1954 55.0142 56.1264C55.8572 54.0487 56.5772 51.9237 57.1205 49.7577C58.2172 45.4369 58.556 40.8961 57.5116 36.5635C57.1933 35.2759 56.7463 34.007 56.1569 32.8009C55.565 31.5955 54.7985 30.4752 53.9039 29.4774C53.0061 28.4833 51.9698 27.6054 50.7991 26.9564C49.6303 26.3061 48.3888 25.8081 47.0658 25.5016C41.2778 24.0531 34.8259 25.5594 30.1899 29.3655C28.773 30.538 27.5414 31.9405 26.6375 33.5339C26.4348 33.9436 26.2172 34.3477 26.0239 34.7612L25.5483 36.0468C25.3108 36.9421 25.0634 37.8386 24.9428 38.7587L24.8563 39.2778L24.8128 39.8025L24.7295 40.8525L24.7363 41.9063L24.7419 42.4329L24.7911 42.9582C24.875 44.3645 25.1995 45.7465 25.5986 47.0975C26.0065 48.4503 26.5952 49.7428 27.2356 51.003C27.9058 52.2495 28.6655 53.4463 29.4917 54.5933C32.0892 58.1544 35.2872 61.113 38.566 64.0095C39.2909 64.648 40.0133 65.2579 40.7351 65.9218C43.4165 68.3558 44.1451 69.4245 44.285 70.2899C44.3154 70.4876 44.3484 70.7356 44.3322 70.8482C44.3161 70.9458 44.2551 70.9364 44.1507 70.8488C44.0413 70.7605 43.9275 70.5895 43.695 70.3695C43.2679 69.9231 42.5579 69.228 41.575 68.3657C38.6294 65.8373 35.46 63.266 32.561 60.2911C29.6676 57.3269 26.9595 53.9554 25.1796 49.994C24.5163 48.5293 24.0195 46.9794 23.6751 45.3922C23.3239 43.8025 23.2343 42.1581 23.2847 40.5299C23.345 38.8954 23.6695 37.2902 24.0929 35.7242C24.5839 34.1389 25.3303 32.6425 26.2731 31.2939C26.2797 31.2845 26.2919 31.2811 26.3024 31.2857Z" fill="#231F20"/>
<path fill-rule="evenodd" clip-rule="evenodd" d="M42.3946 73.3803C42.3937 73.3895 42.4001 73.3979 42.4092 73.3996C43.9892 73.6866 45.6688 73.6382 47.3157 73.3699C47.9144 73.2648 48.5211 73.0982 49.1018 72.9708C50.0785 72.7177 51.0738 72.2527 51.9821 71.7137C52.8886 71.166 53.7341 70.4952 54.3234 69.6801C54.8202 68.9453 54.9364 68.0643 54.4956 67.3426C54.2215 66.8844 53.7614 66.5064 53.2653 66.1961C52.7586 65.8977 52.2184 65.6261 51.6439 65.4215C51.2871 65.3015 51.3405 65.1846 51.708 65.0802C52.0623 64.9994 52.7916 64.8856 53.5345 65.217C54.1829 65.5067 54.8214 65.8996 55.3387 66.5312C55.4702 66.6828 55.5759 66.8565 55.6673 67.0407C55.8617 67.4322 55.9853 67.8587 56.02 68.2944C56.0256 68.5107 55.9883 68.7246 55.966 68.9391C55.8018 69.7796 55.3648 70.4467 54.891 70.9994C54.4136 71.5595 53.8516 71.9817 53.2734 72.3628C52.5796 72.8129 51.8603 73.2188 51.1074 73.5807C50.7307 73.761 50.344 73.9269 49.943 74.0706C49.7446 74.1458 49.5295 74.2005 49.3244 74.2645L48.7257 74.3951C46.98 74.7836 45.1702 74.9869 43.3604 74.8346C42.2482 74.737 41.1416 74.5039 40.0878 74.096C39.2921 73.7784 38.5417 73.3283 37.8814 72.7575C37.2305 72.1769 36.6983 71.4277 36.4354 70.5586C36.2451 69.8853 36.2165 69.1281 36.4459 68.4405C36.6822 67.7554 37.1242 67.1654 37.6514 66.7128C37.8839 66.512 38.1195 66.3279 38.3838 66.1738C38.8712 65.8859 39.2373 65.8007 39.4947 65.7684C39.7571 65.7479 39.9262 65.8076 40.0779 65.9325C40.1469 65.9879 40.229 66.037 40.2737 66.0954C40.4242 66.2975 40.0741 66.5884 39.4978 66.9521C38.6393 67.4806 37.9175 68.2123 37.7204 68.9932C37.601 69.3823 37.6228 69.7666 37.7142 70.1725C37.8249 70.5785 38.063 70.9745 38.3539 71.3438C39.2764 72.4336 40.8046 73.0893 42.3798 73.3609C42.389 73.3625 42.3955 73.3709 42.3946 73.3803Z" fill="#231F20"/>
<path fill-rule="evenodd" clip-rule="evenodd" d="M40.7379 70.4402C40.7351 70.4482 40.739 70.457 40.7468 70.4602C41.6223 70.825 42.5952 71.0637 43.5903 71.1806C43.9559 71.2253 44.3258 71.2191 44.6944 71.2334C45.9963 71.2906 47.3273 71.1942 48.6024 70.8691C49.1663 70.7236 49.7208 70.5241 50.2288 70.2629C50.8822 69.921 51.451 69.4796 51.9558 68.9891C52.1162 68.8368 52.2356 68.9238 52.258 69.1936C52.2941 69.4678 52.1809 69.9446 51.8091 70.2828C50.4899 71.4311 48.8573 71.9664 47.2322 72.1255C46.2586 72.2182 45.2546 72.3674 44.253 72.3388C43.1557 72.3058 42.0522 72.1628 40.9897 71.8203C40.3376 71.6102 39.6997 71.3292 39.111 70.9499C38.6677 70.6596 38.2537 70.3071 37.913 69.8831C37.7538 69.6624 37.594 69.4423 37.4753 69.1955C37.3391 68.9742 37.2397 68.6217 37.2459 68.322C37.2527 67.8352 37.4386 67.4031 37.6767 67.0426C37.9186 66.6807 38.2219 66.3749 38.572 66.1262C38.7237 66.013 38.8816 65.9129 39.0556 65.8278C39.7196 65.5325 40.023 65.6468 40.1722 65.9092C40.2076 65.9701 40.2493 66.0286 40.2667 66.0882C40.3133 66.2903 40.0982 66.4749 39.7787 66.6509C39.2913 66.9076 38.8325 67.3279 38.5832 67.7631C38.4582 67.9782 38.4035 68.1883 38.4159 68.327C38.4178 68.3991 38.4395 68.4544 38.4675 68.5129C38.5011 68.585 38.5943 68.7348 38.6509 68.8442C39.0856 69.5232 39.847 70.0656 40.7287 70.4201C40.7367 70.4233 40.7407 70.4322 40.7379 70.4402Z" fill="#231F20"/>
<path fill-rule="evenodd" clip-rule="evenodd" d="M44.3122 76.1285C44.311 76.1379 44.317 76.1466 44.3262 76.1488C45.1418 76.3381 46.0281 76.3664 46.9119 76.2867C47.2383 76.2644 47.5553 76.1736 47.8799 76.1201C49.0281 75.933 50.1627 75.5755 51.2482 75.0999C51.7244 74.8786 52.1801 74.6069 52.5929 74.2979C53.1382 73.9081 53.5721 73.4251 54.0204 72.9762C54.1714 72.8407 54.3063 72.924 54.3704 73.182C54.4002 73.3094 54.4257 73.4959 54.3878 73.6899C54.343 73.8696 54.2566 74.0679 54.1186 74.2457C53.0835 75.3996 51.7953 76.2264 50.3685 76.6622C49.5137 76.9072 48.6626 77.2634 47.7611 77.4195C46.777 77.5979 45.7636 77.6607 44.7521 77.5594C44.1316 77.4935 43.5068 77.3461 42.9218 77.1378C42.0347 76.8121 41.1966 76.3122 40.5016 75.6607C39.9588 75.1621 39.4596 74.6013 39.1009 73.9429C39.0275 73.7962 38.9554 73.652 38.8939 73.4984C38.7142 72.9122 38.8168 72.6877 39.063 72.5062C39.1195 72.4645 39.1705 72.4161 39.2246 72.3887C39.398 72.2973 39.6616 72.472 39.8904 72.7909C40.2268 73.2665 40.5196 73.7148 40.8534 74.1257C41.1885 74.5354 41.5833 74.8885 42.0309 75.1876C42.6841 75.6259 43.4936 75.9472 44.2975 76.1081C44.307 76.11 44.3135 76.1189 44.3122 76.1285Z" fill="#231F20"/>
<path fill-rule="evenodd" clip-rule="evenodd" d="M40.8728 37.9897C40.8811 37.9871 40.8866 37.9792 40.886 37.9705C40.8646 37.6637 40.8631 37.3491 40.8802 37.0273L40.9169 36.5231L40.9772 36.1594C41.012 36.0282 41.0593 35.9014 41.0997 35.7721C41.2725 35.2524 41.6766 34.9142 42.1553 34.8153C42.639 34.7196 43.1432 34.8856 43.5311 35.2387C43.625 35.3301 43.7232 35.424 43.801 35.5278C43.8874 35.6322 43.9694 35.7336 44.0049 35.8013C44.1037 35.9555 44.1821 36.1072 44.2567 36.2589C44.4046 36.561 44.5184 36.8595 44.6204 37.1566C44.8125 37.7559 44.9735 38.3776 45.0462 38.9944C45.3527 41.4619 44.9816 43.9499 43.9017 46.1849C43.7034 46.5921 43.4715 46.9863 43.2153 47.368C43.0854 47.5601 42.9113 47.7541 42.7584 47.9443C42.5762 48.119 42.3909 48.2974 42.1827 48.4479C41.3316 49.0646 40.1914 49.2269 39.257 49.0055C38.4171 48.8333 37.6723 48.4771 36.9965 48.0519C36.3195 47.6216 35.7108 47.1212 35.16 46.5393C34.6005 45.9387 34.1659 45.2797 33.8003 44.5797C33.4391 43.879 33.142 43.1386 32.9928 42.3372C32.846 41.5464 32.8193 40.658 33.2066 39.8355C33.39 39.4358 33.6424 39.0777 34.0092 38.7755C34.3686 38.4728 34.8709 38.2974 35.3477 38.3124C36.3151 38.3447 37.0437 38.9272 37.5933 39.4588C38.1609 40.0115 38.6303 40.6381 39.0406 41.289C40.491 43.6105 41.3017 46.2141 42.0714 48.714C42.5743 50.3285 43.0158 51.9866 43.2968 53.6801C43.4286 54.5281 43.5299 55.3835 43.556 56.2427C43.5821 57.1025 43.538 57.9611 43.4572 58.8116C43.3278 59.8722 43.1712 59.7025 43.0064 58.8103C42.9157 58.3341 42.7963 57.7161 42.6589 56.9987C42.4948 56.2583 42.33 55.4053 42.1727 54.4765C41.8917 52.829 41.4223 51.2163 40.9194 49.5924C40.4295 47.9499 39.9402 46.3179 39.3459 44.7637C38.7503 43.2138 38.026 41.6938 36.9822 40.515C36.7248 40.2222 36.4339 39.9437 36.1609 39.7559C35.8774 39.5688 35.5747 39.4532 35.3179 39.4538C35.0605 39.447 34.8361 39.539 34.6185 39.7491C34.4009 39.9605 34.2163 40.2769 34.123 40.5834C33.8812 41.3599 34.0677 42.3565 34.4345 43.2542C34.7994 44.1594 35.3453 45.0428 36.0099 45.7379C36.7049 46.4417 37.5411 47.0472 38.427 47.4488C39.3086 47.8305 40.2822 48.0121 41.0437 47.6558C41.4646 47.4731 41.8264 47.151 42.1255 46.7469C42.4295 46.3074 42.6981 45.8287 42.9206 45.3263C43.3533 44.3155 43.6418 43.225 43.7643 42.1171C43.8979 41.0093 43.87 39.8821 43.6741 38.7985C43.5635 38.262 43.4174 37.7329 43.2103 37.2269C43.1078 36.9776 42.9915 36.7388 42.8603 36.5337C42.7515 36.3627 42.6962 36.2974 42.5688 36.2247C42.4183 36.1395 42.2293 36.2297 42.1696 36.3857C42.1367 36.4591 42.1087 36.5424 42.0969 36.6176C42.0695 36.742 42.0391 36.9229 42.0335 37.0814C42.0011 37.7441 42.0764 38.4411 42.2057 39.1199C42.3369 39.7995 42.5246 40.4734 42.787 41.105C43.0431 41.7205 43.3919 42.3658 43.8376 42.6742C44.2063 42.8999 44.6614 43.0105 45.0984 42.9278C45.5411 42.8532 45.9757 42.6157 46.3568 42.303C47.1146 41.6708 47.722 40.7674 48.013 39.8287C48.1566 39.3842 48.1609 38.8731 48.0969 38.3888C48.0273 37.912 47.8532 37.4376 47.5678 37.1945C47.2725 36.9496 46.9778 36.9527 46.6664 37.2468C46.353 37.5471 46.0975 38.0009 45.9048 38.4647C45.7456 38.8271 45.653 39.1964 45.5616 39.6042C45.459 39.999 45.3906 40.4019 45.3247 40.8041C45.206 41.6098 45.1345 42.4212 45.1171 43.2331C45.0804 44.857 45.2035 46.4796 45.4851 48.0792C45.6095 48.7842 45.7643 49.4668 45.9402 50.1644C46.261 51.46 46.5377 52.2925 46.6869 52.8949C46.8435 53.4948 46.8684 53.8691 46.823 54.2048C46.8019 54.3577 46.7994 54.5511 46.7609 54.6537C46.6614 54.9943 45.8917 54.0941 45.2016 52.1532C44.2026 49.281 43.7027 46.137 43.8395 42.9347C43.8824 42.1352 43.9576 41.3313 44.0919 40.5306C44.1671 40.1321 44.2119 39.7267 44.3083 39.3282L44.4401 38.7208C44.4985 38.4914 44.5669 38.285 44.6427 38.0742C44.7988 37.6571 44.9834 37.2468 45.2545 36.8321C45.5255 36.4367 45.8874 35.9499 46.6751 35.6882C47.0506 35.603 47.4683 35.5949 47.8221 35.7671C48.1957 35.8896 48.4618 36.1184 48.6788 36.359C49.109 36.8526 49.27 37.3705 49.3813 37.8529C49.5187 38.5809 49.5361 39.248 49.3515 40.0183C49.1575 40.7196 48.8498 41.3164 48.4767 41.8728C48.1 42.4249 47.6517 42.9316 47.0966 43.3605C46.5445 43.7814 45.8557 44.142 45.0412 44.2067C44.8429 44.2359 44.6328 44.2004 44.4307 44.1911C44.2287 44.1656 44.0328 44.1016 43.8364 44.0506C43.6524 43.976 43.4752 43.8877 43.298 43.8007C43.0997 43.6844 42.9281 43.5433 42.7845 43.4028C42.2374 42.8315 41.9564 42.2365 41.7058 41.6447C41.2377 40.4594 40.9577 39.2662 40.8596 38.009C40.8589 38.0003 40.8644 37.9922 40.8728 37.9897Z" fill="#231F20"/>
<path fill-rule="evenodd" clip-rule="evenodd" d="M65.5166 39.487C65.5023 39.5958 65.3587 39.548 65.1355 39.4162C65.064 39.3745 64.8956 39.2011 64.89 39.1582C64.8788 39.0749 64.8694 38.9922 64.8744 38.9213C64.8744 38.8784 65.1567 38.4277 65.2568 38.2691C65.35 38.1143 65.4725 37.9894 65.6055 37.8775C65.8698 37.6425 66.1526 37.4242 66.4517 37.2253C66.5182 37.1818 66.5928 37.1507 66.6724 37.1302C66.9496 37.0649 67.1884 36.9424 67.4246 36.7994C67.4644 36.7764 67.5104 36.7646 67.5328 36.7049C67.562 36.5968 68.2726 36.3151 68.3808 36.3282C68.64 36.3388 68.8875 36.3257 69.1393 36.3574C69.1747 36.3618 69.2076 36.3363 69.2481 36.386C69.3407 36.5004 69.4078 36.4693 69.4818 36.4693C69.5831 36.4668 69.6864 36.4786 69.7896 36.5122C69.8405 36.5284 69.8946 36.5949 69.9456 36.6471C69.9916 36.6938 69.9798 36.8803 69.9674 36.9014C69.9301 36.963 69.9698 37.0469 69.9785 37.1233C69.985 37.1765 69.9706 37.2264 69.9327 37.2642C69.8931 37.3036 69.8353 37.3568 69.7743 37.4109C69.5978 37.5676 69.3621 37.6951 69.1424 37.7811C68.9695 37.8495 68.7948 37.9316 68.7619 37.957C68.6893 38.0063 68.592 37.9738 68.5156 38.0169C68.4808 38.0365 68.4412 38.0594 68.4008 38.0833C68.2075 38.197 68.0121 38.3885 67.7927 38.3425C67.7834 38.3405 67.7739 38.3381 67.7641 38.335C67.7336 38.327 67.7156 38.3437 67.6957 38.3562C67.5247 38.4631 67.3289 38.5271 67.1393 38.6117C67.0441 38.6571 66.9627 38.7242 66.875 38.782C66.8589 38.7926 66.8346 38.7907 66.8147 38.7957C66.7899 38.8019 66.7619 38.8038 66.7426 38.8187C66.5399 38.9642 66.3006 39.0705 66.1302 39.2626C66.0892 39.3024 65.797 39.395 65.7554 39.4516C65.7311 39.4808 65.5222 39.4423 65.5166 39.487Z" fill="#231F20"/>
<path fill-rule="evenodd" clip-rule="evenodd" d="M59.5261 25.6346C59.5112 25.7465 59.3589 25.6955 59.1264 25.5612C59.0524 25.5183 58.8771 25.3405 58.8703 25.2964C58.8572 25.2093 58.846 25.1229 58.8485 25.0483C58.8485 25.0035 59.1189 24.5211 59.2097 24.3464C59.2955 24.1779 59.4124 24.0412 59.5392 23.9168C59.7984 23.665 60.0751 23.4344 60.3499 23.2131C60.4114 23.1646 60.4823 23.1273 60.5606 23.1049C60.8292 23.0253 61.0443 22.8761 61.2383 22.7014C61.2706 22.6722 61.3117 22.6542 61.316 22.5876C61.3272 22.4782 61.8799 22.0685 61.9694 22.048C62.2019 21.9995 62.4108 21.9174 62.6309 21.8478C62.6632 21.8397 62.6788 21.8049 62.7397 21.8385C62.8814 21.9168 62.9219 21.8578 62.984 21.8279C63.0704 21.7856 63.1593 21.7471 63.2644 21.7278C63.3166 21.7179 63.403 21.7527 63.4795 21.7738C63.5491 21.7931 63.6617 21.9678 63.6642 21.9952C63.671 22.0729 63.7605 22.1276 63.8177 22.1922C63.837 22.214 63.8625 22.2426 63.8755 22.2619C64.1692 22.6555 63.4388 23.2091 63.0812 23.5457C63.0184 23.6048 62.9715 23.6502 62.9567 23.6681C62.9243 23.7073 62.8634 23.7073 62.8112 23.7179C62.7863 23.7253 62.3039 24.1817 62.2821 24.1904C62.1603 24.2507 62.0788 24.3663 61.8998 24.3383C61.8643 24.3327 61.8457 24.3526 61.8252 24.3694C61.6486 24.5105 61.4372 24.5976 61.2371 24.7002C61.1363 24.753 61.0549 24.8326 60.9629 24.8966C60.9461 24.909 60.9194 24.9066 60.8988 24.9128C60.8721 24.9202 60.8417 24.9221 60.8218 24.9389C60.6216 25.113 60.3574 25.2087 60.1808 25.4108C60.1373 25.4518 59.8233 25.5419 59.7798 25.6004C59.7537 25.6302 59.5324 25.5886 59.5261 25.6346Z" fill="#231F20"/>
<path fill-rule="evenodd" clip-rule="evenodd" d="M51.4752 78.7636C51.4688 78.76 51.4607 78.7618 51.4565 78.7678C51.1292 79.2337 50.7407 79.7031 50.2249 80.069C50.029 80.194 49.8456 80.3438 49.6193 80.4222C49.2308 80.5832 48.7738 80.6242 48.3778 80.5614C47.9762 80.5005 47.6125 80.3637 47.2867 80.1872C46.997 80.0317 46.7173 79.872 46.4512 79.6997C46.2827 79.5866 46.1099 79.4778 45.9538 79.3491C45.804 79.2123 45.6778 79.0495 45.5727 78.871C45.5087 78.7579 45.6268 78.6659 45.817 78.6124C46.2445 78.4988 46.649 78.7469 47.0251 78.9796C47.4428 79.238 47.8611 79.4551 48.2777 79.6158C48.6594 79.7532 49.0182 79.6481 49.3675 79.4548C49.7486 79.2484 50.0875 78.9058 50.3797 78.4999C50.5631 78.2531 50.7266 77.9783 50.8832 77.6991C51.1151 77.2702 51.3495 76.8275 51.5522 76.3699C51.7064 76.0137 51.8114 75.632 51.9799 75.2683C52.0178 75.1881 52.0464 75.1042 52.0906 75.0265C52.2721 74.7467 52.4182 74.7131 52.6799 74.8207C52.7365 74.8431 52.7919 74.8586 52.8366 74.881C52.9721 74.9456 53.1008 75.1962 53.0486 75.4131C52.9019 76.0641 52.6302 76.6721 52.3051 77.3155C52.0694 77.7893 51.8038 78.2729 51.4942 78.7589C51.4901 78.7653 51.4817 78.7674 51.4752 78.7636Z" fill="#231F20"/>
<path fill-rule="evenodd" clip-rule="evenodd" d="M43.0741 18.5864C43.1432 18.684 43.0082 18.7729 42.7652 18.8544C42.6875 18.8805 42.4506 18.8842 42.4139 18.8575C42.3443 18.8053 42.274 18.753 42.2224 18.6996C42.1944 18.6654 42.0042 18.1407 41.9128 17.9685C41.8301 17.8 41.7866 17.6303 41.7506 17.4599C41.6784 17.1142 41.5721 16.7754 41.5118 16.4322C41.4963 16.3564 41.4981 16.2781 41.5118 16.1979C41.5622 15.9212 41.5149 15.657 41.426 15.4009C41.4111 15.358 41.4099 15.3113 41.3477 15.2796C41.3236 15.2681 41.296 15.2233 41.2684 15.1594C41.0654 14.6904 41.1643 14.1628 41.229 13.6557C41.2333 13.6197 41.2066 13.5886 41.26 13.5438C41.3844 13.4388 41.3402 13.3735 41.3489 13.2945C41.3509 13.2669 41.3526 13.2392 41.3548 13.2114C41.3678 13.0444 41.4553 12.9016 41.5553 12.7673C41.5989 12.7089 41.7251 12.7027 41.7487 12.7133C41.8065 12.7468 41.8656 12.6927 41.919 12.6747C41.9377 12.6685 41.9619 12.6604 41.9793 12.6585C42.0082 12.6531 42.1586 12.7496 42.3107 12.862C42.5628 13.0485 42.725 13.3331 42.851 13.6203C42.9479 13.841 43.0536 14.0723 43.081 14.1183C43.1389 14.2124 43.1012 14.3356 43.1365 14.4403C43.2078 14.6521 43.3258 15.0027 43.3253 15.0247C43.3322 15.1752 43.4074 15.3163 43.2998 15.486C43.2793 15.5196 43.2905 15.5482 43.2973 15.578C43.352 15.8304 43.3334 16.0953 43.329 16.3552C43.3266 16.4882 43.3564 16.6175 43.357 16.7499C43.3576 16.7736 43.3396 16.799 43.3322 16.8239C43.3228 16.855 43.3073 16.8867 43.3091 16.9165C43.3309 17.2268 43.2712 17.5426 43.3179 17.8485C43.3278 17.9193 43.196 18.2656 43.2128 18.3452C43.2209 18.3912 43.0449 18.5479 43.0741 18.5864Z" fill="#231F20"/>
<path fill-rule="evenodd" clip-rule="evenodd" d="M22.9449 19.6774C22.8125 19.66 22.8802 19.4828 23.0742 19.2236C23.1357 19.1409 23.3726 18.9444 23.4236 18.9357C23.5224 18.9177 23.6188 18.9009 23.6971 18.899C23.7431 18.9028 24.1951 19.1428 24.3673 19.1937C24.5277 19.2522 24.6583 19.3405 24.7839 19.4368L25.5827 19.9945C25.6424 20.0361 25.6922 20.0915 25.7369 20.1574C25.8861 20.3874 26.1 20.5335 26.3356 20.6466C26.3748 20.6653 26.4077 20.697 26.4711 20.674C26.5712 20.6379 27.183 21.0016 27.2452 21.0849C27.3931 21.2901 27.5641 21.4629 27.727 21.6513C27.7506 21.678 27.7922 21.6793 27.7873 21.7489C27.7755 21.9099 27.8501 21.9261 27.9079 21.9721C27.9875 22.0368 28.0639 22.1089 28.1261 22.2027C28.1572 22.2487 28.1572 22.3451 28.1653 22.4272C28.1733 22.5018 28.0403 22.6759 28.0148 22.6883C27.9402 22.7237 27.9191 22.8307 27.8762 22.9109C27.8619 22.9376 27.8426 22.9724 27.8283 22.9929C27.7954 23.0364 27.1102 23.0694 27.0568 23.0364C27.0506 23.0333 26.851 22.9525 26.6384 22.8649C26.4258 22.7797 26.2019 22.6914 26.1522 22.6783C26.1006 22.6653 26.0739 22.61 26.0403 22.5658C26.026 22.5497 25.3645 22.2948 25.3415 22.2742C25.2259 22.1853 25.0705 22.1518 25.0176 21.9653C25.0077 21.9286 24.9784 21.918 24.953 21.905C24.7279 21.7843 24.5445 21.6003 24.3561 21.425C24.2585 21.3367 24.1429 21.2708 24.0378 21.1912C24.0192 21.1769 24.0123 21.1471 23.9987 21.126C23.9812 21.0999 23.9701 21.0644 23.9464 21.047C23.6977 20.8561 23.5094 20.5963 23.2476 20.4141C23.1836 20.3737 23.0506 20.0162 22.9816 19.9696C22.9399 19.9429 22.9965 19.6843 22.9449 19.6774Z" fill="#231F20"/>
</g>
<defs>
<filter id="filter0_d_1_946" x="0.494385" y="0.846191" width="94.011" height="96.0111" filterUnits="userSpaceOnUse" color-interpolation-filters="sRGB">
<feFlood flood-opacity="0" result="BackgroundImageFix"/>
<feColorMatrix in="SourceAlpha" type="matrix" values="0 0 0 0 0 0 0 0 0 0 0 0 0 0 0 0 0 0 127 0" result="hardAlpha"/>
<feOffset dx="2" dy="4"/>
<feComposite in2="hardAlpha" operator="out"/>
<feColorMatrix type="matrix" values="0 0 0 0 0 0 0 0 0 0 0 0 0 0 0 0 0 0 1 0"/>
<feBlend mode="normal" in2="BackgroundImageFix" result="effect1_dropShadow_1_946"/>
<feBlend mode="normal" in="SourceGraphic" in2="effect1_dropShadow_1_946" result="shape"/>
</filter>
</defs>
</svg>
